<svg xmlns="http://www.w3.org/2000/svg" viewBox="0 0 1280 960" preserveAspectRatio="xMidYMid meet"><path fill="#fefefe" d="M0 0h1280v960H0z"/><path fill="#131216" d="M430 279h45l3 12a319 319 0 0 0 2.086 6.988l1.124 3.616 1.165 3.708 1.21 3.884c1.992 6.382 4.044 12.735 6.227 19.054 1.61 4.725 2.828 9.438 3.876 14.312 1.781 8.223 4.468 16.114 7.187 24.063C512 399.176 512 399.176 512 407h2l.312-3.562c.298-3.393 1.359-6.065 2.74-9.16 2.221-5.338 3.962-10.869 5.823-16.34a4867 4867 0 0 1 5.789-16.861c.651-1.88 1.31-3.758 1.969-5.636l1.16-3.318C533 349 533 349 534.472 346.113c1.817-3.701 3.079-7.445 4.34-11.363l.773-2.353q1.214-3.696 2.415-7.397 1.586-4.877 3.188-9.75l.719-2.235c1.385-4.213 3.036-8.072 5.093-12.015.503-1.528.964-3.07 1.375-4.625 1.711-6.001 4.14-11.659 6.625-17.375h6c1.936 3.504 3.337 6.918 4.438 10.75.965 3.36 2.042 6.581 3.374 9.812 2.197 5.332 4.098 10.754 5.994 16.198 2.364 6.781 4.894 13.488 7.506 20.178a515 515 0 0 1 5.626 15.374c3.138 8.972 6.471 17.863 9.844 26.748a3566 3566 0 0 1 3.098 8.189c1.929 5.151 3.686 10.349 5.358 15.591.57 2.112.57 2.112 1.762 3.16l.77-3 1.042-4 .502-1.965c.88-3.354 1.865-6.583 3.146-9.807 1.482-3.908 2.476-7.858 3.352-11.939 2.279-10.105 5.226-19.992 8.188-29.914q1.566-5.268 3.125-10.539l.759-2.564c1.853-6.297 3.578-12.617 5.244-18.966 1.251-4.744 2.584-9.464 3.934-14.181l.737-2.602.736-2.578.637-2.234c1.199-3.928 2.529-7.815 3.828-11.711h44c-2.026 7.428-4.104 14.74-6.438 22.062l-.869 2.776c-1.698 5.344-3.614 10.532-5.736 15.722-1.544 3.937-2.783 7.96-4.019 12.002l-1.473 4.754-.727 2.349a375 375 0 0 1-2.297 6.987 165 165 0 0 0-2.379 7.657c-1.527 5.305-3.305 10.521-5.062 15.753l-2.43 7.262-1.276 3.81c-2.147 6.411-4.282 12.826-6.419 19.241-4.648 13.952-4.648 13.952-6.781 20.309a2132 2132 0 0 0-10.343 31.706c-5.283 16.607-5.283 16.607-7.563 21.922-3.142 7.672-5.274 15.72-7.587 23.67A163 163 0 0 1 619 502h-6c-3.166-7.184-6.186-14.374-8.875-21.75-2.145-5.864-4.545-11.564-7.125-17.25-3.194-7.042-6.031-14.151-8.68-21.414-1.459-3.963-3.031-7.868-4.656-11.766C583 428 583 428 583 426h-2l-.699-2.203c-2.413-7.44-5.223-14.611-8.301-21.797q-1.871-4.48-3.73-8.965a695 695 0 0 0-2.696-6.351l-1.386-3.246-1.27-2.942C562 378 562 378 562 375h-2l-.332 1.793-.48 2.395-.458 2.355c-.84 2.828-2.192 4.946-3.73 7.457a110 110 0 0 0-2 5.312l-1.039 2.938L551 400c-1.75 4.922-3.728 9.709-5.812 14.5-2.819 6.519-5.339 13.119-7.805 19.777a537 537 0 0 1-3.633 9.535l-.891 2.27C532 448 532 448 530 451q-.659 2.427-1.305 4.855c-.842 2.599-1.966 4.988-3.133 7.457-2.061 4.396-3.579 8.701-4.789 13.399-.911 2.697-2.304 4.855-3.773 7.289a118 118 0 0 0-2 5.438c-1.42 4.041-2.965 7.797-5 11.562h-6c-3.946-10.457-7.717-20.958-11.25-31.562l-.996-2.987c-1.474-4.455-2.907-8.916-4.238-13.416-1.386-4.677-2.921-9.297-4.476-13.92-1.753-5.251-3.424-10.528-5.102-15.803Q475.978 417.154 474 411l-.773-2.42a159 159 0 0 0-4.098-11.205c-2.454-6.039-4.496-12.211-6.538-18.397q-.98-2.964-1.968-5.923c-1.756-5.284-3.503-10.567-5.072-15.91-2.228-7.551-4.799-14.994-7.301-22.457l-2.431-7.266-1.6-4.782a2695 2695 0 0 1-4.422-13.316l-.943-2.856q-.815-2.474-1.623-4.95c-1.58-4.783-3.384-9.423-5.364-14.057C431 285 431 285 430 279"/><path fill="#121116" d="M716 279h116v34l-76 1v51l60 1v33l-60 1v65l83 1v35H716z"/><path fill="#9d8f85" d="M648 278h198v36h-76v-1h62v-34H716v222h122v1H702l-1-206-6 18-2.5 7.5-1.219 3.664a1567 1567 0 0 1-2.75 8.172C685.1 343.489 681.948 353.696 679 364h-2l-.312 3.5c-.464 3.725-1.468 6.84-2.868 10.305-1.244 3.33-2.094 6.75-2.976 10.191-2.029 7.223-4.645 14.235-7.282 21.254-2.334 6.278-4.497 12.557-6.402 18.98-1.627 5.288-3.399 10.526-5.16 15.77-2.505 7.463-4.936 14.931-7.207 22.469-.89 2.842-1.929 5.598-3.012 8.371-1.04 2.875-1.902 5.794-2.781 8.722-1.409 4.654-2.976 9.023-5 13.438a598 598 0 0 0-2 5h-5c-3.422-4.504-5.201-8.14-4.582-13.875 1.531-6.83 3.853-13.505 6.652-19.914 2.553-6.07 4.306-12.503 6.305-18.773q4.96-15.522 9.971-31.028.766-2.369 1.529-4.739c2.875-8.93 5.845-17.814 8.991-26.652 2.188-6.146 4.274-12.324 6.322-18.519l.998-3.008 1.928-5.822q.821-2.476 1.657-4.947c1.786-5.283 3.421-10.605 5.032-15.944 2.911-9.634 5.959-19.101 9.615-28.478 2.617-6.912 4.74-14.003 6.955-21.051l.99-3.148.884-2.834C691 281 691 281 692 279h-44z"/><path fill="#d4c248" d="M648 278h198v36h-76v-1h62v-34H715v222c-9 0-9 0-12-1q-.035-40.746-.052-81.492-.007-18.918-.023-37.836-.015-16.487-.019-32.974 0-8.731-.012-17.463-.01-8.215-.007-16.432 0-3.018-.006-6.036-.007-4.115-.001-8.231l-.009-2.42c.01-3.851.264-7.369 1.129-11.116l1-7h-57z"/><path fill="#d2c149" d="M416 279h14c3.02 8.179 5.831 16.409 8.562 24.688a2747 2747 0 0 0 11.063 32.687 3059 3059 0 0 1 12.401 36.692q1.563 4.7 3.138 9.394l1.089 3.252q1.021 3.049 2.047 6.098a400 400 0 0 1 4.99 15.941c.743 2.352 1.631 4.599 2.585 6.873 2.296 5.573 4.031 11.294 5.781 17.055 1.68 5.473 3.523 10.892 5.344 16.32l2.438 7.312 1.273 3.821 2.578 7.734.64 1.92 1.868 5.611q1.194 3.574 2.406 7.141l1.109 3.273.989 2.895C501 490 501 490 501 492h-2l-3 9h-6q-1.855-4.808-3.699-9.621a401 401 0 0 0-2.196-5.602c-1.489-3.752-2.548-7.472-3.48-11.402-2.727-11.306-7.127-22.182-11.687-32.863-.904-2.421-1.363-4.59-1.75-7.137-.736-3.968-1.934-7.243-3.688-10.875-1.651-3.431-2.827-6.431-3.438-10.188-1.305-7.921-4.477-16.142-8.062-23.312-.04-2-.043-4 0-6h-2l-.551-2.344-.761-3.156-.739-3.094c-.863-3.099-1.923-6.05-3.077-9.05-1.85-5-3.432-10.093-5.06-15.168l-1.115-3.428-1.052-3.28-.958-2.971C436 339 436 339 436 336h-2l-4.492-15.723-.792-2.756a457 457 0 0 1-1.728-6.291c-1.053-3.443-2.421-6.585-3.926-9.855-2.575-5.867-4.251-11.526-5.519-17.828-.427-2.523-.427-2.523-1.543-4.547"/><path fill="#9a8d8c" d="M560 375h2c3.793 9.067 7.479 18.149 10.859 27.379a141 141 0 0 0 4.953 11.683c1.917 4.068 2.889 7.458 3.188 11.938h2q2.377 5.687 4.75 11.375l1.344 3.215c2.002 4.8 3.994 9.603 5.914 14.437a576 576 0 0 0 4.5 10.953l1.301 3.088q1.324 3.14 2.656 6.274c5.852 13.923 5.852 13.923 5.109 17.986l-.886 1.922-.864 1.953L606 499l-1 3h-6l-.77-1.977-1.042-2.648-1.02-2.602c-1.143-2.814-1.143-2.814-2.621-5.589-1.821-3.748-3.151-7.555-4.485-11.496-1.852-5.385-3.831-10.591-6.25-15.75-1.352-3.226-2.068-6.526-2.812-9.938h-2c-6.574-17.149-6.574-17.149-9-26h-2l-.586-1.977c-1.4-4.7-2.826-9.381-4.414-14.023h-2l-.48 1.695c-3.173 10.902-6.862 21.284-12.11 31.364-1.885 3.932-3.171 7.966-4.472 12.121-1.124 3.38-2.559 6.545-4.055 9.773-1.274 2.954-2.088 5.933-2.883 9.047h-2l-.25 2.438c-.772 3.668-1.991 6.593-3.562 9.972-2.203 4.803-4.172 9.707-6.188 14.59h-6l-3-8h-2c1.37-4.485 2.794-8.788 5-12.938 1.539-2.932 2.556-5.745 3.438-8.937 1.288-4.61 3.223-8.591 5.437-12.82 1.466-3.003 2.247-6.086 3.125-9.305.908-2.162 1.886-4.286 2.863-6.418 1.79-4.066 3.334-8.224 4.914-12.375 2.29-6.007 4.645-11.97 7.285-17.832 2.215-4.928 4.085-9.942 5.872-15.039 1.783-5.038 3.704-9.809 6.183-14.543 1.238-2.513 2.079-5.115 2.883-7.793"/><path fill="#9c8e8d" d="M475 279h13c2.835 6.016 4.432 12.129 6.062 18.562 2.638 10.128 5.692 20.038 9.063 29.938 2.832 8.331 5.639 16.646 8 25.125l.606 2.15c.875 3.243 1.269 5.828 1.269 9.225h2l.25-2.312c1.353-6.652 3.889-12.922 6.75-19.063 1.569-3.441 2.737-6.875 3.812-10.5 2.837-9.557 6.434-18.847 9.96-28.166 2.145-5.678 4.156-11.4 6.154-17.131 1.969-5.619 1.969-5.619 3.074-7.828h6l3 9h2q-.653 2-1.312 4l-.739 2.25a205 205 0 0 1-2.215 6.074c-2.555 6.77-4.833 13.642-7.172 20.488-8.234 24.11-8.234 24.11-12.027 33.063-2.65 6.283-4.901 12.671-7.097 19.125l-1.131 3.289A2305 2305 0 0 0 517 398l-1.75 5.25L514 407h-2l-1.031-3.715c-2.802-9.993-5.766-19.913-8.969-29.785-4.092-12.634-7.795-25.355-11.27-38.172-2.674-9.835-5.721-19.481-8.989-29.133C475.46 287.584 475.46 287.584 475 279"/><path fill="#9c8e8c" d="M573 279h5c4.601 8.14 7.604 16.426 10.463 25.293a179 179 0 0 0 6.225 16.496c2.116 5.179 3.891 10.476 5.713 15.764a381 381 0 0 0 6.654 17.818c.912 2.538 1.492 4.974 1.945 7.629h2l.312-2.938c.401-2.811 1.06-5.327 2.012-8 2.413-7.074 4.186-14.328 6.071-21.556 2.489-9.413 2.489-9.413 4.199-13.815 1.198-3.145 2.101-6.211 2.874-9.482 1.092-4.534 2.364-9.023 3.594-13.521l.815-2.995.783-2.869.707-2.591A120 120 0 0 1 634 279h14c-2.028 9.155-4.26 18.146-7.15 27.069-1.411 4.4-2.593 8.807-3.662 13.306-1.752 7.347-3.947 14.539-6.188 21.75l-1.069 3.441-2.038 6.556c-2.913 9.391-5.337 18.787-7.392 28.399-1.327 6.054-3.234 11.712-5.501 17.479-1.03 2.99-2.02 5.993-3 9-2.393-2.393-2.912-4.224-3.988-7.426l-1.134-3.335-1.19-3.551q-1.219-3.58-2.442-7.157l-1.18-3.453C600.19 375.66 598.122 370.327 596 365c-3.193-8.093-6.125-16.213-8.789-24.492-1.239-3.59-2.701-7.025-4.211-10.508q-1.155-3.083-2.25-6.188l-1.289-3.636a1531 1531 0 0 1-3.234-9.321l-.929-2.684q-.905-2.619-1.799-5.242c-1.249-3.612-2.525-6.98-4.249-10.402C568 290 568 290 568.625 288.062L570 286q.84-1.864 1.625-3.75z"/><path fill="#d6c654" d="M170 551h9l.471 1.826c2.707 10.467 5.423 20.933 8.279 31.362l.6 2.226c.935 3.381 1.911 6.527 3.65 9.586q.94-3.25 1.875-6.5l1.055-3.656a335 335 0 0 0 2.508-9.608c1.15-4.573 2.391-9.122 3.624-13.674l.815-3.044.783-2.889.707-2.623C204 552 204 552 205 551a74 74 0 0 1 4.562-.062l2.504.027L214 551a1296 1296 0 0 1 8.25 28.688l.782 2.822c1.222 4.48 2.326 8.881 2.968 13.49 2.688-2.688 3.048-5.597 3.875-9.188q.523-2.183 1.051-4.367l.537-2.245c1.405-5.761 2.993-11.475 4.537-17.2l.883-3.348.805-3.027.699-2.648C239 552 239 552 240 551c2.671-.141 5.324-.042 8 0-.401 4.413-1.355 8.248-2.812 12.438-1.786 5.177-3.186 10.366-4.468 15.689-2.61 10.701-5.714 21.277-8.72 31.873h-10c-2.185-6.413-4.159-12.855-6-19.375l-.792-2.782c-1.611-5.678-3.183-11.364-4.665-17.077-.395-1.774-.395-1.774-1.543-2.766l-.953 3.48c-2.26 8.216-4.587 16.395-7.133 24.528-1.416 4.635-2.665 9.309-3.914 13.992h-10a5655 5655 0 0 1-3.437-10.807 986 986 0 0 1-6.558-21.692l-.708-2.403-.614-2.109c-.724-2.108-1.678-4.003-2.683-5.989a75 75 0 0 1-1.062-4.812l-.497-2.637A233 233 0 0 1 170 551"/><path fill="#d5c34b" d="m627.402 566.469 3.697-.016c1.267.016 2.533.03 3.838.047l3.826-.047 3.701.016 3.364.014c4.071.664 6.15 1.697 9.172 4.517.602 2.915.8 4.998.726 7.907l.003 2.308a267 267 0 0 1-.057 4.82 302 302 0 0 0-.028 7.368q-.015 2.345-.043 4.69l.006 2.22c-.097 3.473-.344 5.352-2.52 8.119-5.262 3.954-11.548 2.874-17.9 2.943l-3.892.114c-1.239.01-2.477.023-3.752.035l-3.437.06c-4.216-.792-5.615-2.117-8.106-5.584-.5-2.872-.704-5.14-.664-8.004l-.015-2.304a320 320 0 0 1 .027-4.803c.027-2.448 0-4.892-.032-7.34q.005-2.339.02-4.678l-.03-2.21c.082-3.617.432-5.36 2.835-8.12 3.348-1.804 5.47-2.057 9.261-2.072"/><path fill="#d6c757" d="m769.05 566.512 1.997.02c2.09.029 4.177.092 6.266.156q2.133.038 4.267.068c3.474.055 6.947.14 10.42.244v2h2c2.368 3.71 2.244 6.955 2.23 11.285l-.001 2.114q-.005 2.205-.023 4.41c-.018 2.25-.02 4.498-.02 6.748-.044 12.779-.044 12.779-2.326 16.106-2.812 2.022-5.182 1.726-8.61 1.736l-1.983.008q-2.073.003-4.146-.016c-2.114-.016-4.226 0-6.34.019a1355 1355 0 0 1-4.031-.011l-3.703-.011C762 611 762 611 760.077 609.6 759 608 759 608 759 606h-2q-.185-7.125-.274-14.251-.039-2.423-.103-4.845a416 416 0 0 1-.111-6.978l-.078-2.175c-.002-3.752.478-5.625 2.656-8.716 3.614-2.527 5.582-2.616 9.96-2.523"/><path fill="#d6c656" d="M456 551h44v9h-35v17h30v9h-30v17h35v8h-44z"/><path fill="#d2c14b" d="M566 392h3l1.137 3.113c2.365 6.421 4.723 12.769 7.675 18.949 1.917 4.068 2.889 7.458 3.188 11.938h2q2.377 5.687 4.75 11.375l1.344 3.215c2.002 4.8 3.994 9.603 5.914 14.437a576 576 0 0 0 4.5 10.953l1.301 3.088q1.324 3.14 2.656 6.274c5.852 13.923 5.852 13.923 5.109 17.986l-.886 1.922-.864 1.953L606 499l-1 3h-6l-.77-1.977-1.042-2.648-1.02-2.602c-1.143-2.814-1.143-2.814-2.621-5.589-1.821-3.748-3.151-7.555-4.485-11.496-1.852-5.385-3.831-10.591-6.25-15.75-1.352-3.226-2.068-6.526-2.812-9.938h-2c-6.574-17.149-6.574-17.149-9-26h-2l-.586-1.977c-.797-2.676-1.605-5.35-2.414-8.023l-1.062-3.562c-.682-2.591-.682-2.591-2.938-3.438l1.375-1.812c1.991-3.906 2.539-7.553 3.195-11.86C565 393 565 393 566 392"/><path fill="#d6c44e" d="m1081.559 566.336 3.857-.02 2.002.032c2.012.027 4.018 0 6.03-.032l3.86.02 3.526.017c4.138.846 5.632 2.316 8.166 5.647.568 2.495.568 2.495.489 5.082l-.038 2.546-.138 3.185L1109 593h-30v10h30v8q-7.18.111-14.361.165-2.444.022-4.886.06c-2.341.038-4.681.055-7.022.068l-2.207.047c-5.031.002-5.031.002-7.444-1.671-2.45-3.786-2.271-7.666-2.318-12.005l-.024-2.171q-.021-2.272-.033-4.544a398 398 0 0 0-.061-4.637 455 455 0 0 1-.07-6.71l-.052-2.081c.015-3.38.456-5.48 2.095-8.455 3.112-2.697 4.856-2.71 8.942-2.73"/><path fill="#d6c655" d="M870.321 566.65a267 267 0 0 0 4.097-.082c1.972-.055 3.945-.074 5.918-.091l3.58-.06c3.084.583 3.084.583 5.476 2.798 1.721 2.982 2.082 4.47 1.998 7.867l-.03 2.546-.11 3.185L891 593h-30v10h30v8q-6.994.037-13.99.055-2.38.008-4.76.02-3.419.018-6.836.023l-2.156.015c-5.03 0-5.03 0-7.258-1.113v-2h-2c-1.56-3.12-1.12-6.43-1.098-9.851l.004-2.346c.006-2.476.02-4.952.031-7.428l.014-5.031q.017-6.173.05-12.344l3-1v-2c4.22-2.11 9.677-1.31 14.32-1.35"/><path fill="#d4c24a" d="M634 279h14c-2.028 9.155-4.26 18.146-7.15 27.069-1.411 4.4-2.593 8.807-3.662 13.306-2.297 9.637-5.345 19.046-8.29 28.5-2.524 8.109-4.989 16.237-6.96 24.5-1.042 4.027-2.418 7.756-3.938 11.625l-3-1c-.509-1.832-1-3.671-1.395-5.531-.94-3.835-2.394-7.464-3.8-11.149C609 364 609 364 609 362h2l.312-2.938c.401-2.811 1.06-5.327 2.012-8 2.413-7.074 4.186-14.328 6.071-21.556 2.489-9.413 2.489-9.413 4.199-13.815 1.198-3.145 2.101-6.211 2.874-9.482 1.092-4.534 2.364-9.023 3.594-13.521l.815-2.995.783-2.869.707-2.591A120 120 0 0 1 634 279"/><path fill="#d2c14b" d="M545 279h6l3 9h2q-.653 2-1.312 4l-.739 2.25a205 205 0 0 1-2.215 6.074c-2.555 6.77-4.833 13.642-7.172 20.488-8.449 24.742-8.449 24.742-11.812 32.376-4.253 10.011-7.387 20.477-10.75 30.812h-4v-5h-2l-3-15h2l.25-2.312c1.353-6.652 3.889-12.922 6.75-19.063 1.569-3.441 2.737-6.875 3.812-10.5 2.837-9.557 6.434-18.847 9.96-28.166 2.145-5.678 4.156-11.4 6.154-17.131 1.969-5.619 1.969-5.619 3.074-7.828"/><path fill="#d5c44e" d="m390.219 566.469 3.574-.016 3.707.047 3.707-.047a3681 3681 0 0 0 6.826.03c3.728.65 5.393 1.762 7.967 4.517.568 2.474.568 2.474.489 5.203l-.038 2.677-.138 3.37L416 593h-29v10h29v8q-6.698.112-13.397.165-2.277.023-4.554.062c-2.187.036-4.373.053-6.56.066l-3.984.048c-3.848-.374-5.708-.647-8.505-3.341-.518-2.941-.702-5.302-.664-8.246l-.014-2.447a364 364 0 0 1 .026-5.121c.027-2.611 0-5.218-.031-7.828q.004-2.49.019-4.98l-.03-2.36c.08-3.738.37-5.644 2.847-8.508 3.286-1.742 5.36-2.025 9.066-2.041"/><path fill="#d5c44d" d="M700 551q7.924-.223 15.851-.33 2.693-.045 5.386-.123c2.589-.073 5.177-.107 7.767-.133l2.409-.094c5.482-.003 8.284 1.388 12.305 5.096 1.991 2.46 1.983 4.372 1.72 7.459l-.192 2.93L745 568h-9v-8h-33v43h33v-8h8c.136 1.727.232 3.457.312 5.188l.176 2.917c-.693 4.113-2.218 5.348-5.488 7.895-2.968.701-5.841.655-8.879.594h-2.573a400 400 0 0 1-5.368-.052 458 458 0 0 0-8.209-.034q-2.613-.016-5.225-.039l-2.475-.001c-3.311-.069-5.813-.22-8.755-1.81-2.612-2.857-2.647-5.649-2.677-9.341l-.029-2.873-.013-3.096-.017-3.187q-.014-3.338-.02-6.675c-.01-3.407-.041-6.812-.072-10.218q-.01-3.241-.016-6.483l-.038-3.09.01-2.882-.011-2.53c.454-2.821 1.421-4.219 3.367-6.283h2z"/><path fill="#dbcd6a" d="M563 549h8c1.514 1.514 1.213 2.925 1.316 5.035l.127 2.451.119 2.576A1845 1845 0 0 1 573 568l3-2c3.797-.462 7.615-.37 11.438-.375l3.181-.074 3.065-.012 2.798-.025c2.518.486 2.518.486 4.826 1.93 2.559 3.866 2.19 7.379 2.083 11.915l-.018 2.741a860 860 0 0 1-.123 8.65q-.03 2.936-.055 5.871c-.044 4.794-.113 9.586-.195 14.379h-9v-36h-22v36h-9z"/><path fill="#d5c554" d="M258 550h8v21h2l1-3c4.28-1.427 8.39-1.265 12.875-1.312l2.723-.088 2.644-.026 2.402-.044c3.507.7 4.99 1.774 7.356 4.47.686 3.055.582 6.024.488 9.141l-.021 2.673a659 659 0 0 1-.155 8.436 2734 2734 0 0 0-.068 5.727c-.055 4.675-.141 9.349-.244 14.023h-8v-36h-23v36h-8z"/><path fill="#a09292" d="m780.55 398.902 3.107.004q4.827.01 9.656.031l6.615.014q8.036.016 16.072.05v1h-46v65h-14v-65c8.28-.638 16.288-1.143 24.55-1.099"/><path fill="#d5c44f" d="m916 566.504 3.438-.002 3.562.06 3.562-.021c11.061.082 11.061.082 15.438 4.459.072 1.853.084 3.708.062 5.563l-.027 3.066-.035 2.37h-8v-7h-21v28h21v-8h9v11h-2v2c-4.121 4.107-8.611 3.45-14.109 3.509L923 611.5l-3.891.086-3.734.008-3.414.02C909 611 909 611 906.637 608.964c-2.045-3.701-2.232-6.842-2.203-10.967l-.019-2.304q-.01-2.402.009-4.803c.013-2.448-.021-4.892-.059-7.34q-.002-2.34.006-4.678l-.04-2.21c.067-3.64.401-5.356 2.833-8.122 3.231-1.753 5.178-2.042 8.836-2.035"/><path fill="#d5c450" d="m522.34 566.371 3.72-.006 3.878.072 3.865-.033c10.714.084 10.714.084 15.197 4.596.488 2.797.488 2.797.313 5.75l-.137 2.984L549 582h-7v-7h-22v28h22v-7h7c.136 1.56.233 3.123.313 4.687l.175 2.637c-.706 3.872-2.483 5.207-5.488 7.676-3.182.647-3.182.647-6.726.664l-3.875.02c-.661-.01-1.321-.02-2.001-.032-2.025-.027-4.045 0-6.07.031l-3.867-.019c-1.167-.006-2.335-.01-3.538-.017-2.923-.647-2.923-.647-4.8-2.704-1.378-3.612-1.572-6.88-1.556-10.693l-.016-2.23q-.01-2.324.003-4.649c.009-2.364-.02-4.726-.052-7.09q-.003-2.265.002-4.53l-.034-2.129c.048-3.414.5-5.567 2.165-8.567 3.053-2.653 4.694-2.687 8.705-2.684"/><path fill="#d6c551" d="M342 553h8v14h15v8h-15v28h15v8c-2.73.081-5.457.141-8.188.188l-2.33.076c-4.638.059-7.76-.164-11.482-3.264-1.159-3.478-1.113-6.188-1.098-9.855l.005-2.005q.01-3.163.031-6.328l.013-4.294q.017-5.259.049-10.518h-11v-8h11z"/><path fill="#d5c247" d="M964 553h8v14h15v8h-15v28h15v8c-2.917.081-5.832.141-8.75.188l-2.5.076c-6.109.074-6.109.074-9.266-1.588-3.058-3.453-2.6-7.144-2.582-11.531l.005-2.005c.005-2.109.018-4.218.031-6.328l.013-4.294q.017-5.259.049-10.518h-11v-8h11z"/><path fill="#9f9190" d="M756 314h14v51h-14z"/><path fill="#9a8f8f" d="M716 278h130v36h-76v-1h62v-34H716z"/><path fill="#d4c44b" d="M1019 567h8c5.081 10.594 9.47 21.5 12 33h2l.855-2.586c9.214-27.483 9.214-27.483 12.145-30.414q3.5-.062 7 0c-1.189 6.456-3.138 12.144-5.812 18.125a221 221 0 0 0-8.278 22.164C1046 610 1046 610 1045 611c-2.671.141-5.324.042-8 0-8.145-15.756-8.145-15.756-10.992-24.195-1.695-4.718-3.792-9.262-5.836-13.836C1019 570 1019 570 1019 567"/><path fill="#fbfbf0" d="M624 575h23v28h-23z"/><path fill="#fefef6" d="M766 575h21v28h-21z"/><path fill="#d9c95e" d="M813.5 548.875C817 549 817 549 818 550c.099 1.897.128 3.798.129 5.697l.01 3.691-.006 4.018.003 4.092q.001 4.292-.006 8.585-.006 5.513.004 11.026.005 4.227 0 8.452-.001 2.034.002 4.067.003 2.838-.007 5.675l-.002 3.268C818 611 818 611 817 612c-3.5.125-3.5.125-7 0-1.767-1.767-1.128-4.303-1.129-6.697l-.01-3.691.006-4.018-.003-4.092q-.001-4.292.006-8.585.006-5.513-.004-11.026-.005-4.227 0-8.452.001-2.034-.002-4.067-.003-2.838.007-5.675l.002-3.268c.201-3.85.627-3.411 4.627-3.554"/><path fill="#d8c95d" d="M831 549h9v62h-9z"/><path fill="#978a8a" d="M770 465h69v1h-69zm69 1h13v35h-13z"/><path fill="#f3e964" d="m427 644 4 1v13l3-1c5.305-.342 8.725-.521 13 3 2.359 3.033 2.356 6.261 2.258 10.035-.379 2.883-1.466 4.709-3.258 6.965-3 2-3 2-19 2z"/><path fill="#eede6b" d="M614 644h4v35h-16c-6.029-6.029-6.029-6.029-7-9 .137-2.254.137-2.254.688-4.562l.511-2.317c.906-2.399 1.809-3.526 3.801-5.121 3.54-1.18 6.282-1.196 10-1l4 2z"/><path fill="#d6c551" d="M258 550h8v61h-8z"/><path fill="#ece364" d="M493 657v23l-7.188.188-2.235.082c-4.439.056-7.054-.586-10.577-3.27l-1.777-1.352c-2.25-3.033-1.802-6.336-1.715-9.976.54-2.931 1.062-3.901 3.304-5.797 6.585-3.873 12.677-2.944 20.188-2.875"/><path fill="#e6ce71" d="M822 646c2.062-.082 4.125-.139 6.188-.188l3.48-.105c3.65.321 5.42 1.124 8.332 3.293 2.296 2.851 2.968 4.823 3.625 8.438-.765 4.36-2.038 5.762-5.469 8.406-3.675 1.971-7.021 2.029-11.156 2.156v11l-4 1c-1-1-1-1-1.114-4.143q.001-2.086.016-4.173l.005-2.216c.005-2.343.018-4.687.031-7.03l.013-4.756q.017-5.841.049-11.682"/><path fill="#988a8a" d="M816 366h14v33h-14z"/><path fill="#d6c34a" d="M564 550h7v61h-6c-1-1-1-1-1.12-3.398l.006-3.223.001-3.64.015-3.962.005-4.031q.006-5.315.024-10.628.014-5.42.02-10.839.017-10.64.049-21.279"/><path fill="#efe06a" d="M567 657c3.114 1.933 5.805 4.053 8 7 .285 2.676.285 2.676 0 5-1.857 1.857-4.939 1.347-7.438 1.5-4.44.141-4.44.141-8.562 1.5 1.155 1.382 1.155 1.382 4.312 1.125 3.493.022 3.493.022 6-.75L571 672l2 2c-.556 4.556-.556 4.556-2 6-4.585.627-9.125 1.058-13.25-1.27-3.863-3.307-5.605-5.282-6.125-10.48.03-3.318.602-5.101 2.687-7.688 3.997-3.81 7.283-4.271 12.688-3.562"/><path fill="#d5c347" d="M1001 567h8v44h-8z"/><path fill="#d6c656" d="M312 567h8v44h-8z"/><path fill="#dec344" d="M795.563 647.5 798 649v5l-6-3c-5.445-.614-9.616-1.024-14.126 2.312-2.997 4.297-3.136 7.537-2.875 12.688.912 3.322.912 3.322 2 6 9.141 2.182 9.141 2.182 18 0l2.375-1.125L799 670v6c-5.88 4.182-10.841 4.908-18 4-5.414-1.537-7.151-4.378-9.828-9.125-1.854-4.546-2.204-9.068-1.172-13.875 1.457-1.66 1.457-1.66 3-3l1.25-2.5c4.813-6.877 14.188-7 21.313-4"/><path fill="#d5c656" d="M1019 567h8c5.081 10.594 9.47 21.5 12 33l-3-1-2 5c-2.945-3.423-4.335-7.177-5.812-11.375-2.437-6.741-5.152-13.293-8.086-19.832C1019 570 1019 570 1019 567"/><path fill="#f6edbe" d="M701 294h1v207h-1V304l-4 2q.716-2.439 1.438-4.875l.808-2.742C700 296 700 296 701 294"/><path fill="#fbf9e4" d="M861 575h22v10h-22z"/><path fill="#fcf9e6" d="M386 575h22v10h-22z"/><path fill="#d5c346" d="M1105 574h2v18h-27c4-6 4-6 7.891-6.805q2.179-.078 4.359-.07l2.258-.063A239 239 0 0 1 1100 585l1-10h3z"/><path fill="#fdfbe8" d="M1079 575h21v10h-21z"/><path fill="#d6c344" d="M464 604h34v5c-1.963 1.963-5.747 1.164-8.43 1.168l-2.261.01q-2.373.007-4.746.007c-2.421.002-4.841.021-7.262.04q-2.303.005-4.606.005l-2.197.022c-3.722-.017-5.317-.132-8.498-2.252h4z"/><path fill="#debe56" d="M863 646h22v4h-9v29h-4v-29h-9z"/><path fill="#e5ce54" d="m699 657 5 1 2-1c7.108-.573 7.108-.573 10.242 1.441 2.631 3.83 2.192 7.281 2.008 11.809l-.055 2.547A428 428 0 0 1 718 679h-3l-.148-3.211-.227-4.164-.094-2.117c-.126-4.21-.126-4.21-2.531-7.508-1.993-.024-1.993-.024-4.125.375L704 663l-1 16h-4z"/><path fill="#fcfce3" d="M481.875 660.563c3.339.09 3.948.287 6.625 2.562 1.766 3.385 2.219 5.119 1.5 8.875-2.592 2.896-4.223 3.874-8.063 4.5-2.937-.5-2.937-.5-5.374-1.937-2.088-3.423-1.646-5.663-1.118-9.54 1.073-3.914 2.475-4.014 6.43-4.46"/><path fill="#fcfce5" d="m438.5 660.75 2.406-.078L443 661c2.459 3.689 2.681 6.717 2 11-1.562 2.5-1.562 2.5-4 4-3.562.5-3.562.5-7 0-2.221-2.196-2.966-3.402-3.145-6.543l.333-2.645.292-2.667L432 662c2.341-1.171 3.894-1.199 6.5-1.25"/><path fill="#fbfdf4" d="M602 661c4.031-.39 6.756-.498 10.5 1 2.04 2.72 2.009 4.789 1.812 8.125C614 672 614 672 612.938 674c-2.997 1.546-5.632 1.24-8.938 1l-2-1v-2h-2c-.25-7.625-.25-7.625 2-11"/><path fill="#d5c245" d="M862 604h28v6c-4.271.058-8.541.094-12.812.125l-3.682.051-3.526.019-3.253.032C864 610 864 610 861 608z"/><path fill="#dbd07b" d="m627.508 566.504 3.738-.002 3.879.06 3.903-.021c9.484.065 9.484.065 11.862 1.986L652 570l-2.166-.485c-4.755-.864-9.512-.782-14.334-.827l-3.13-.088c-6.043-.07-6.043-.07-11.526 2.232-3.283 3.86-2.978 7.654-2.941 12.46 0 .707.002 1.413.004 2.14.005 2.252.018 4.504.03 6.756q.008 2.292.014 4.584c.01 3.742.029 7.485.049 11.228-2.884-2.884-2.343-5.843-2.371-9.711-.01-.764-.018-1.53-.027-2.317a655 655 0 0 1-.027-4.857 471 471 0 0 0-.112-7.42q-.015-2.358-.021-4.718l-.06-2.24c.032-3.647.335-5.41 2.746-8.204 3.39-1.81 5.55-2.035 9.38-2.03M652 570l3 1q.074 7.422.11 14.844.015 2.526.04 5.052c.025 2.417.037 4.835.046 7.253l.03 2.288c0 1.856-.104 3.71-.226 5.563l-2 2z"/><path fill="#d6cd78" d="M964 553h8v14h-1v-12l-5 1-1 11h-1zm-11 14h11v1h-9v5l1.934-.035 2.504-.027 2.496-.036C964 573 964 573 965 574c.147 2.17.228 4.345.281 6.52l.056 1.984q.087 3.155.163 6.308.103 4.136.219 8.27l.092 3.726c.153 2.58.433 4.737 1.189 7.192h-2c-1.159-3.478-1.113-6.188-1.098-9.855l.005-2.005c.005-2.109.018-4.218.031-6.328l.013-4.294q.017-5.259.049-10.518h-11zm19 0h15v8h-15v-1h14l-1-5-13-1z"/><path fill="#ddd286" d="M700 551q7.924-.223 15.851-.33 2.693-.045 5.386-.123c2.589-.073 5.177-.107 7.767-.133l2.409-.094c5.482-.003 8.284 1.388 12.305 5.096 1.991 2.46 1.983 4.372 1.72 7.459l-.192 2.93L745 568h-9v-8h1l1 5 5 1a97 97 0 0 0-.125-4.25l-.07-2.391c-1.243-3.643-3.496-4.533-6.805-6.359-3.582-.593-3.582-.593-7.41-.496l-2.091-.005q-2.175.004-4.349.034c-2.21.029-4.418.021-6.629.008-10.228-.06-10.228-.06-18.521 5.459-.33 2.1-.33 2.1-.319 4.542l-.06 2.85-.035 3.085-.059 3.152c-.06 3.332-.106 6.664-.152 9.996l-.117 6.766A4837 4837 0 0 0 696 605h-1q-.113-10.144-.165-20.288-.022-3.452-.061-6.902c-.037-3.307-.054-6.613-.067-9.919l-.047-3.119-.001-2.912-.02-2.557c.445-2.837 1.402-4.231 3.361-6.303h2z"/><path fill="#e9e051" d="m528 657 1 5-8-1c1.505 4.215 4.293 5.713 8 8 1 1 1 1 1.312 4.375C530 677 530 677 528.438 679c-3.435 1.409-5.869.793-9.438 0l-2-1v-4l9 1v-4l-3.375-1.375C519 668 519 668 517 666c-.323-3.04-.457-5.144 1-7.875 3.253-1.83 6.314-1.306 10-1.125"/><path fill="#f4edba" d="M549 572h1v10h-1zm-29 3h22v7h7v1h-8c-1.062-2.375-1.062-2.375-2-5l1-2h-19v26h19v-6c1-1 1-1 3.066-1.098l2.496.036 2.504.027L550 595c.081 2.104.139 4.208.188 6.312l.105 3.551C550 608 550 608 548.488 609.918L547 611l-3-1 1.938-1.375c3.044-3.875 2.878-7.817 3.062-12.625h-7v7h-22z"/><path fill="#ebd552" d="M614 644h4v35h-3v-3l-4 1 1.438-2c2.044-3.926 2.421-6.561 2.562-11-1.271-2.48-1.271-2.48-3-4h2z"/><path fill="#fbfae8" d="M827 650c3.492-.201 6.199-.349 9.438 1.062 2.36 2.927 1.887 5.295 1.562 8.938l-1 3h-10z"/><path fill="#e1bb32" d="M823 647c9 0 9 0 12 2l-8 1v14l6 1-1 2h-6v12h-3z"/><path fill="#eeda89" d="M797 670h2v6c-5.881 4.182-10.842 4.908-18 4-2.836-1.023-2.836-1.023-5-2v-2h5l-3-2 1-2 1.977.508c5.278 1.23 8.968 2.02 14.023-.508z"/><path fill="#d4cb72" d="M1075 567q6.057-.186 12.115-.275 2.06-.038 4.118-.102c1.978-.061 3.956-.087 5.935-.111l3.602-.08c4.227.743 5.671 2.177 8.23 5.568.568 2.495.568 2.495.488 5.082l-.038 2.546-.138 3.184L1109 593h-30v-1h28l-.312-8.688-.076-2.709-.1-2.177-.08-2.206c-.59-3.033-1.46-4.828-3.432-7.22-2.984-.782-2.984-.782-6.418-.707l-3.799-.088-3.971-.017q-2.003-.035-4.005-.077-4.904-.088-9.807-.111zm3 26h1v10h-1z"/><path fill="#ecda70" d="m670 656 5 1v22l-4 1c-1-1-1-1-1.114-3.225l.016-2.904.01-3.135.026-3.298.013-3.311q.018-4.063.049-8.127"/><path fill="#d1c867" d="M1001 567h8v7h-1v-6l-4 1-1 40 6-1v3h-8z"/><path fill="#fcfee5" d="m524.063 655.688 2.66.011C529 656 529 656 531 658c.124 2.626.124 2.626 0 5-.991.332-1.981.66-3 1v3c.99.332 1.98.66 3 1a377 377 0 0 1 .124 4.876l.07 2.742C531 678 531 678 529 680l-3-1 3-2c.918-3.327.918-3.327 0-7-1.958-1.843-3.963-3.227-6.25-4.64-.577-.45-1.154-.898-1.75-1.36v-3h7v-4c-5.586.198-5.586.198-10 3-.345 4.053-.302 5.548 2 9l-4-2c-.367-7.465-.367-7.465 1.196-9.742 2.394-1.67 3.97-1.625 6.866-1.57"/><path fill="#f3f0c1" d="m914.887 564.441 3.342.021 3.459.1 3.494.018c8.523.125 8.523.125 10.818 2.42l-2.323.044c-3.476.074-6.951.171-10.427.268l-3.656.068-3.516.108-3.237.08c-3.326.505-4.686.821-6.841 3.432a55 55 0 0 0-.39 8.386c.005.817.01 1.634.017 2.476.022 2.61.072 5.217.123 7.825q.03 2.654.055 5.307c.044 4.336.113 8.67.195 13.006l-2-1a1257 1257 0 0 1-.274-15.534 517 517 0 0 0-.103-5.28 494 494 0 0 1-.111-7.604l-.078-2.375c-.002-4.099.258-5.78 2.729-9.209 3.252-2.29 4.79-2.609 8.724-2.557"/><path fill="#ebdd58" d="m554 664 2 1v7h2v2h2v2c5.551-.744 5.551-.744 11-2v4c-3.15 2.1-5.097 2.552-8.859 2.434-4.077-.826-6.858-2.996-9.141-6.434-.613-3.097-.575-5.898 0-9z"/><path fill="#d2c669" d="M465 603h35v8h-43v-1l40-1 1-5h-33z"/><path fill="#e9d649" d="M610 657c2.438 1.375 2.438 1.375 4 3v2l2 2c-.033 2.729-.564 5.297-1 8h-1l-.488-6.055c-.386-2.34-.386-2.34-3.512-3.945-2.72-.472-5.277-.455-8 0-3.252 2.728-3.535 5.907-4 10h-1c-.081-1.77-.139-3.541-.188-5.312l-.105-2.989C597 661 597 661 598.324 659.207c3.675-2.647 7.306-2.514 11.676-2.207"/><path fill="#e8db5c" d="M560 657c3.385-.415 5.981-.566 9.023 1.125 3.571 2.798 3.571 2.798 4.977 4.875v6h-15v-2l2.371-.148 3.067-.227 3.058-.211L570 666l1-2-1.938-.938C567 662 567 662 566 661c-2.671-.141-5.324-.042-8 0z"/><path fill="#fbf6c1" d="m616 641 3 2c.267 2.837.348 5.454.293 8.289l-.013 2.48a980 980 0 0 1-.092 7.856q-.023 2.66-.042 5.32-.051 6.527-.146 13.055c-3 1-3 1-5.062.562-4.305-.824-8.569-.638-12.938-.562l-1-2q3.657-.04 7.312-.062l2.092-.026c3.144-.015 5.59.086 8.596 1.088v-35l-4-1zm-3 3h1v15l-4-1 3-1z"/><path fill="#d6cb75" d="M1079 603h30v8q-7.18.148-14.362.22-2.443.03-4.885.082c-2.341.048-4.681.071-7.023.089l-2.206.062c-2.062.001-2.062.001-5.524-.453-1.983-2.024-1.983-2.024-3-4l5 1v2l29-1v-4l-27-1z"/><path fill="#e4c651" d="m770 657 2 2 3-2-.141 1.688c-.284 6.02.747 10.295 4.141 15.312a70 70 0 0 0 3 3c-2.875-.25-2.875-.25-6-1-1.375-2.062-1.375-2.062-2-4h-2c-2.026-3.349-2.217-5.87-2.125-9.75l.055-2.984z"/><path fill="#ece148" d="M490 659h2v18c-6.968 1.991-10.347 2.218-17 0v-2l2.047.105 2.703.083 2.672.105c3.164-.36 4.444-.921 6.578-3.293.447-2.936.447-2.936.188-6.125A209 209 0 0 1 489 660z"/><path fill="#f8ee8b" d="M472 661c0 3.742-.513 7.29-1 11h3v-7l2-1-.195 5.957c.062 2.357.062 2.357 2.195 5.043h-3v2c7.54 1.079 7.54 1.079 15 0v2l3 1c-2.397.081-4.79.141-7.188.188l-2.041.076c-4.503.066-7.187-.533-10.771-3.264l-1.793-1.34c-1.751-2.409-1.57-4.281-1.519-7.222l.011-2.942C470 663 470 663 472 661"/><path fill="#d5c343" d="M737 553c4.875 2.875 4.875 2.875 6 4 .072 1.519.084 3.042.062 4.562l-.027 2.504L743 566h-5c-1.586-4.163-2.311-7.539-2-12z"/><path fill="#d2c557" d="M311 550h9v8h-9z"/><path fill="#faf4b9" d="M574 664h1v5h-1zm-18 5h18v1l-2.668.184-3.52.254-3.48.246c-2.848.27-5.544.691-8.332 1.316zm2 3 2 2h-2zm10 0c2.062.438 2.062.438 4 1 .625 2.375.625 2.375 1 5l-2 2-3-1 3-1v-4l-1.562 1c-3.218 1.32-5.995 1.132-9.438 1v-2l3.438-.438c3.37-.174 3.37-.174 4.562-1.562"/><path fill="#dad387" d="M934 595h9v11h-2l-1 2 1-11h-6v6h-1zm-21 8h21v1h-21z"/><path fill="#d4c654" d="M1019 567c6.152-.098 6.152-.098 8 0 1 1 1 1 1.098 2.848L1028 576c-4.44.36-4.44.36-6.75-1.125-1.69-2.535-1.917-4.881-2.25-7.875"/><path fill="#f1e935" d="M428 645h2l.148 2.992.227 3.883.211 3.867c.086 3.339.086 3.339 2.414 5.258l-1.5 1.812c-2.198 4.671-1.74 9.108-1.5 14.188h-2z"/><path fill="#d6c76b" d="M350 603h15v8h-17v-2l-2-1h16v-3l-12-1z"/><path fill="#d2c665" d="m391.813 566.75 2.1.055c1.695.046 3.392.118 5.087.195v1l-2.921.078-3.829.172-3.796.141c-4.07.718-5.026 1.324-7.454 4.609a53 53 0 0 0-.61 8.047c-.015.771-.032 1.542-.05 2.337-.047 2.455-.07 4.91-.09 7.366q-.043 2.502-.09 5.004c-.074 4.082-.124 8.164-.16 12.246h-1q-.184-7.793-.274-15.588a493 493 0 0 0-.103-5.302c-.06-2.542-.09-5.083-.111-7.626-.026-.788-.051-1.577-.079-2.39-.001-3.888.192-5.685 2.861-8.6 3.538-1.953 6.596-1.939 10.519-1.744"/><path fill="#d4ca75" d="M702.313 552.188 704 553l-2.376 1.375c-2.662 1.51-2.662 1.51-4.625 3.625-.33 2.1-.33 2.1-.318 4.542l-.062 2.85c-.01 1.018-.023 2.035-.034 3.084l-.058 3.154c-.06 3.332-.106 6.663-.154 9.995l-.116 6.765q-.144 8.305-.258 16.61h-1q-.187-10.117-.274-20.234a830 830 0 0 0-.104-6.88c-.06-3.3-.088-6.598-.11-9.897l-.078-3.105c-.003-7.12-.003-7.12 2.952-11.082 2.615-1.803 2.615-1.803 4.927-1.615"/><path fill="#d0c554" d="M1001 550h8v8h-8z"/><path fill="#e4c946" d="M712 659c4.875.875 4.875.875 6 2 .086 1.343.107 2.69.098 4.035l-.01 2.451-.026 2.576-.013 2.588q-.02 3.175-.049 6.35h-3l-.148-3.613-.227-4.699-.094-2.381-.117-2.295-.095-2.111c-.24-2.226-.24-2.226-2.319-4.901"/><path fill="#f6ed78" d="M430 645h1v13l3-1a65 65 0 0 1 4.188-.062L442 657v1l-6 1 5 1v1l-9 1c-2.491-3.737-2.207-5.745-2.125-10.188l.055-3.855zm1 17c1.238 3.576.749 6.337 0 10h-1a596 596 0 0 1-.062-4.438l-.036-2.496C430 663 430 663 431 662"/><path fill="#fdfadc" d="M567 661c1.875 1.375 1.875 1.375 3 3v2h-13l1-4c3.276-1.092 5.568-1.286 9-1"/><path fill="#d7c242" d="M171 552h7c1.25 6.625 1.25 6.625-1 10l-3-1c-.949-2.066-.949-2.066-1.688-4.562l-.761-2.504z"/><path fill="#d6cc77" d="M205 551h9l2 9-3-1-1-6c-3.403 1.012-4.757 1.648-6.812 4.625L204 560c-1.033-2.788-1.045-3.868-.062-6.75z"/><path fill="#f3edbd" d="m1055.066 565.902 2.496.035c.826.01 1.653.018 2.504.027L1062 566l1 2a137 137 0 0 1-3 7c-1-2-1-2-.063-5.125L1061 567l-7 1-1.243 3.394-1.632 4.418-.817 2.236-.8 2.16-.73 1.982C1048 584 1048 584 1046 587c.32-5.533 2.288-20.778 9.066-21.098"/><path fill="#f6f2c3" d="M232 576c1.642 3.283.113 6.529-.75 9.938l-.516 2.208c-1.642 6.588-1.642 6.588-4.734 8.854-2.125-6.625-2.125-6.625-1-10l1 5h2l.113-1.723c.457-5.361 1.522-9.444 3.887-14.277"/><path fill="#e7d062" d="m714 657 1 2-2 1 2 4-3-2c-2.057-.241-2.057-.241-4.188-.125L704 662l-2-4c3.981-1.327 7.85-1.069 12-1"/><path fill="#fdf8ce" d="m670 646 6 2a99 99 0 0 1 0 5c-1 1-1 1-3.5 1.125C670 654 670 654 669 653c-.125-3-.125-3 0-6z"/><path fill="#f0e44a" d="M477.75 658.688 480 659l-2 1a91 91 0 0 0-2 4l-1 1a236 236 0 0 0-1 7h-3c-.484-7.14-.484-7.14 1.688-11 2.312-2 2.312-2 5.062-2.312"/><path fill="#fbf6b8" d="m524.063 655.688 2.66.011C529 656 529 656 531 658c.124 2.626.124 2.626 0 5h-4c-.332-.659-.66-1.32-1-2h2v-4c-5.587.2-5.587.2-10 3-.346 4.053-.303 5.548 2 9-1.322-.659-2.64-1.32-4-2-.368-7.464-.368-7.464 1.195-9.741 2.394-1.67 3.97-1.625 6.866-1.57"/><path fill="#d5cb78" d="M973 603h14v8h-18l-1-2h16l2-5h-13z"/><path fill="#f4edbc" d="M701 294h1v26h-1v-16l-4 2q.716-2.439 1.438-4.875l.808-2.742C700 296 700 296 701 294"/><path fill="#deb432" d="M864 647h20v2c-6.902.839-13.114 1.016-20 0z"/><path fill="#e0c961" d="M789 647c7.875.875 7.875.875 9 2a99 99 0 0 1 0 5l-6-3c-1.537-.225-3.08-.408-4.625-.562l-2.477-.254L783 650v-1h6z"/><path fill="#d6cc78" d="M241.848 550.902 248 551c-.75 6.625-.75 6.625-3 10v-8l-2.375 2.375L238 560c.994-8.947.994-8.947 3.848-9.098"/><path fill="#d5c14e" d="M343 554h6v6h-5v6h-1z"/><path fill="#e7d851" d="M613 672v4h2v2c-4.409 1.102-8.484 1.077-13 1l-1-3 1.863-.113 2.449-.199 2.426-.176c2.625-.594 3.57-1.47 5.262-3.512"/><path fill="#edda64" d="M603 657c6.351-.366 6.351-.366 9.438 1.375C614 660 614 660 614 662l2 2c-.033 2.729-.564 5.297-1 8h-1l-.488-6.055c-.386-2.34-.386-2.34-3.512-3.945-1.99-.39-3.99-.732-6-1v-1h5v-2h-6z"/><path fill="#e8df5f" d="M521.945 656.805 528 657l1 5-8-1-2 3c-.625-2.375-.625-2.375-1-5 2-2 2-2 3.945-2.195"/><path fill="#f5eaba" d="m787.375 644.625 3.398-.023c3.541.437 5.462 1.156 8.227 3.398.313 3.687.313 3.687 0 7l-3-1h2c-.106-2.452-.106-2.452-1-5-4.895-3.212-11.516-2.406-17.063-1.5L778 648c2.656-3.56 5.104-3.404 9.375-3.375"/><path fill="#debc32" d="M823 647c8.625-.25 8.625-.25 12 2l-8 1-2 6h-2z"/><path fill="#ede650" d="M429 666h1v6h-1zm1 6 1.625 1.375c2.692 1.842 5.26 2.705 8.375 3.625v2c-3.856.22-6.492-.396-10-2zm-2 5 2 1Z"/><path fill="#fbf8ca" d="m521 669 6 2-1 5h-6l-1-2h2z"/><path fill="#f1e44a" d="m446 663 3 1v8l-3 1zm-1 10 1 3-4 1z"/><path fill="#e7cf34" d="M616 663h1v15h-2v-2l-4 1 1.375-1.938c2.07-3.901 2.826-7.746 3.625-12.062"/><path fill="#f4e56f" d="m517 660 2 3 2-2 .875 1.875c1.062 2.258 1.062 2.258 3.125 4.125l-5 2c-1.5-1.125-1.5-1.125-3-3-.188-3.188-.188-3.188 0-6m4 0h5v1h-5z"/><path fill="#d1c258" d="m856 569 3 1-1.468 1.661c-1.832 2.797-1.952 4.442-2.044 7.761l-.107 3.105-.069 3.223-.103 3.27q-.123 3.99-.209 7.98h-1c-.058-4.104-.094-8.208-.125-12.312l-.051-3.538-.019-3.388-.032-3.127C854 572 854 572 856 569"/><path fill="#f9f3c9" d="M184 602c1.648 2.967 2.443 5.656 3 9l-2-1c-.594-2.649-.742-5.292-1-8m14 2c1.125 1.75 1.125 1.75 2 4l-2 4h-11v-1h10z"/><path fill="#dad17c" d="M480 470c3.3 2.967 3.892 5.714 5 10l1.125 2.625c.961 2.609 1.033 4.617.875 7.375-3.35-3.648-4.123-7.559-5.188-12.25l-.537-2.258A794 794 0 0 1 480 470"/><path fill="#a89966" d="M566 392h3l3 9c-4.875-1.75-4.875-1.75-6-4l-2 3c.875-6.875.875-6.875 2-8"/><path fill="#e5d846" d="m571 664 2 1-1 4h-13v-2l2.371-.148 3.067-.227 3.058-.211L570 666z"/><path fill="#d1c869" d="M1054 567h7l-1 3v-2c-2.47.641-2.47.641-5 2-1.348 2.308-1.348 2.308-2.125 5-1.577 4.801-1.577 4.801-4.875 7 1.599-5.196 3.741-10.066 6-15"/><path fill="#f4e86a" d="M445 666h1c.369 6.523.369 6.523-1.5 8.938L443 676l2 2-5 1v-2l-2-1 2.375-1.062c3.46-2.555 3.77-4.82 4.625-8.938m1 7h2l-1 3z"/><path fill="#d6c540" d="m244 552 2 1a85 85 0 0 1-2 7l-5-1c3.875-5.875 3.875-5.875 5-7"/><path fill="#beaa66" d="M515 370c3 2 3 2 3.73 4.82l.458 3.305.48 3.32L520 384h-2v-5h-2z"/><path fill="#dbc039" d="M796 673c0 3 0 3-2 6-1.875.363-1.875.363-4 .312l-2.125-.011C786 679 786 679 784 677l2.117-.367 2.758-.508 2.742-.492c2.548-.463 2.548-.463 4.383-2.633"/><path fill="#e2d07b" d="M797 670h2v6l-5 2 1-3-5 1 2.375-1.875c2.593-2.024 2.593-2.024 4.625-4.125"/><path fill="#f9fefa" d="M558 671h13c-4.39 3.292-5.72 3.587-11 3z"/><path fill="#f7f2ce" d="m608 491 2 4h-2l-.375 2.375C607 500 607 500 605 502q.462-2.47.938-4.938l.527-2.777C607 492 607 492 608 491m-9 11h6v1h-6z"/><path fill="#f1e470" d="m517 674 9 2-4 1v2l4 1c-6.75-.875-6.75-.875-9-2z"/><path fill="#453c13" d="M549 305c1.315 3.659.655 6.08-.438 9.75l-.871 2.984L547 320h-2c.568-5.455 1.946-9.911 4-15"/><path fill="#f1ecbf" d="M545 278h7c.7 1.264 1.384 2.537 2.062 3.812l1.161 2.145C556 286 556 286 555 289l-2-1c-.633-2.066-.633-2.066-1.125-4.562l-.508-2.504L551 279h-6z"/><path fill="#ddbc3e" d="M825 651h1v12l-3 1v-8h2z"/><path fill="#e1da89" d="m468 435 1 3h2c2.094 3.402 2.179 6.053 2 10-2.55-1.275-2.66-2.185-3.625-4.812l-.789-2.083C468 439 468 439 468 435"/><path fill="#fcf7c3" d="m527 665 1 2 3 1q.079 2.438.125 4.875l.07 2.742C531 678 531 678 529 680l-3-1 3-2c.584-3.415.584-3.415 0-7-1.854-2.441-1.854-2.441-4-4z"/><path fill="#d6ca71" d="M528 567v1l-2.266.008c-5.579-.006-5.579-.006-10.355 2.394-1.222 1.811-1.222 1.811-2.379 4.598-1-3-1-3 .188-5.688 4.451-3.66 9.266-2.704 14.812-2.312"/><path fill="#e7db4e" d="M560 657h7l1 3-10 1z"/><path fill="#dcc237" d="M774 670c3.795 1.491 5.61 3.757 8 7-5.75-.75-5.75-.75-8-3z"/><path fill="#f1e069" d="m556 664 1 2h13v1h-11v2h-3z"/><path fill="#fbf3ac" d="M490 677v2l3 1h-15v-1q2.155-.505 4.312-1l2.426-.562C487 677 487 677 490 677"/><path fill="#e7dd89" d="m671 648 4 1v4h-5z"/><path fill="#f8f1c1" d="M188 586c2.025 1.933 3.421 3.632 5 6-.375 3.188-.375 3.188-1 6-2.421-2.421-2.528-3.801-3.125-7.125l-.508-2.758z"/><path fill="#beae64" d="M612 370c2.792 1.396 3.002 3.004 4.125 5.875l1.07 2.68C618 381 618 381 618 384l-3-1a82 82 0 0 1-2-8l-.625-3z"/><path fill="#dab937" d="m836 648 5 4-1 6h-1v-5l-3-1-1-3z"/><path fill="#e1d993" d="M613 352c1.137 3.404.84 5.775.062 9.25l-.589 2.703L612 366h-2l-1-4h2l.438-3.312C612 355 612 355 613 352"/><path fill="#f5f2c9" d="M543 281c.955 2.17 1.144 3.563.398 5.824-.757 1.744-1.574 3.462-2.398 5.176-1.468-3.816-.48-6.3 1-10z"/><path fill="#c4b85e" d="M705 279h7c-2.615 2.12-5.196 4.131-8 6z"/><path fill="#cec355" d="M171 552h7l-1 4-3-1-2 2z"/><path fill="#ebe3a2" d="M425 306c3.852 3.274 3.601 6.132 4 11-3-2-3-2-3.512-4.164l-.176-2.461-.199-2.477z"/><path fill="#bdb256" d="M640 304c1.242 3.725.475 4.478-1 8-.376 1.992-.72 3.992-1 6h-1a228 228 0 0 1-.188-4.75l-.105-2.672c.344-3.025 1.295-4.334 3.293-6.578"/><path fill="#ebe24b" d="M475 675c6.523.615 6.523.615 8.938 2.562L485 679c-3.469-.458-6.674-.891-10-2z"/><path fill="#fcf9c2" d="M608 661c4.875 1.875 4.875 1.875 6 3 .141 2.671.042 5.324 0 8h-1l-.812-3.25c-1.05-3.315-1.934-5.189-4.188-7.75"/><path fill="#f3e74f" d="M429 666h1v6h-1zm1 6 3 3-1 2h-2zm-2 5 2 1Z"/><path fill="#eeda33" d="m554 664 2 1-1 7-2-1q-.063-3 0-6z"/><path fill="#f0e358" d="m486 659 4 1v6c-2-1.812-2-1.812-4-4z"/><path fill="#d8ca66" d="m1044 592 2 4-5 6-2-2h2l.938-2.875C1043 594 1043 594 1044 592"/><path fill="#a59845" d="M601 472c2.952 2.952 3.087 5.955 4 10-2-1.625-2-1.625-4-4-.25-3.25-.25-3.25 0-6"/><path fill="#f1ecd7" d="M560 410h2l2 6-1.875-.562c-2.167-.675-2.167-.675-4.125.562z"/><path fill="#ede341" d="M446 666h1l1 7h-2zm-1 7 1 3-4 1z"/><path fill="#ece332" d="M490 659h2v9c-2.578-2.578-2.621-4.44-3-8z"/><path fill="#eae04d" d="M521.563 657.938 524 658l-1.376 1.313c-1.826 1.794-1.826 1.794-3.625 4.687a88 88 0 0 1-1-5c1-1 1-1 3.563-1.062"/><path fill="#f3dd96" d="m785.688 644.813 2.448.082L790 645v1l-3.187.437c-2.967.438-5.88.94-8.813 1.563 2.42-2.983 3.899-3.353 7.688-3.188"/><path fill="#a49a42" d="M481 434c2.503 2.938 3.469 5.179 4 9l-2-1v-2h-2z"/><path fill="#453d15" d="M628 348h1c.293 6.055.293 6.055 0 8l-3 2c.537-3.377 1.111-6.697 2-10"/><path fill="#fcf9d9" d="M623 314c1.417 4.251.193 6.719-1 11h-1a290 290 0 0 1-.125-4.375l-.07-2.461C621 316 621 316 623 314"/><path fill="#3e3410" d="M433 288c1.708 1.634 2.935 2.869 4 5 .04 2 .043 4 0 6-1.963-3.505-2.959-7.134-4-11"/><path fill="#f7f1b7" d="m209 568 2 2c-.375 2.125-.375 2.125-1 4v-2h-2l-1 4c.875-6.875.875-6.875 2-8"/><path fill="#d0c15f" d="m620 568 3 1-1.875 1.812c-2.262 2.196-2.262 2.196-4.125 5.188.75-5.75.75-5.75 3-8"/><path fill="#faf5cd" d="m909 565 3 2-2.875 1.875c-3.069 1.945-3.069 1.945-5.125 4.125.542-3.796 2.201-5.472 5-8"/><path fill="#d4c46b" d="M702.188 552.375 704 553l-2.312 1.375A153 153 0 0 0 696 558c.313-1.875.313-1.875 1-4 3-2 3-2 5.188-1.625"/><path fill="#f1ece4" d="M700 298h1v6l-4 2c1.875-6.875 1.875-6.875 3-8"/><path fill="#9b8f45" d="M582 426c2.503 2.938 3.469 5.179 4 9-3.938-3.323-3.938-3.323-4.25-6.75z"/><path fill="#d5bf44" d="M826 673v6h-3v-5c2-1 2-1 3-1"/><path fill="#d0b947" d="M875 672h1v7h-3a85 85 0 0 1 2-7"/><path fill="#eed036" d="M614 672h2v5h-5c1.375-2.5 1.375-2.5 3-5"/><path fill="#dfbd37" d="M825 668h1l-1 8-2-2c.354-2.263.975-3.951 2-6"/><path fill="#d0c25b" d="M362 604h3v5h-3z"/><path fill="#c5bd67" d="M498 486c3 3.75 3 3.75 3 6h-2l-1 2z"/><path fill="#b4a746" d="M567 396h4l1 5-5-2z"/><path fill="#3d3110" d="M457 360h2l2 6-2 2z"/><path fill="#fbf6b8" d="m602 661 4 1-4 3-2-1z"/><path fill="#dad080" d="m1072 607 5 1v2l2 1c-2.375-.312-2.375-.312-5-1z"/><path fill="#3e3a16" d="m554 291 2 4-4 4z"/><path fill="#d7c977" d="M561 408h2l2 4-2 2-.375-1.938L562 410l-2-1z"/><path fill="#d9cf4b" d="M671 649h3v4l-3-1z"/><path fill="#ebe160" d="m517 674 3 1-1 3h-2z"/><path fill="#f2e231" d="m490 673 2 4-4-1z"/><path fill="#efd637" d="m571 664 2 1v3l-4-1z"/><path fill="#dcbe33" d="m793 648 4 2v2l-4-2z"/><path fill="#fefee9" d="m932 598 1 4-4-1z"/><path fill="#d0c152" d="m856 569 3 1-4 4z"/><path fill="#d2c486" d="M609 362h3v4h-2z"/><path fill="#d5c341" d="M343 555h3v3h-3z"/><path fill="#f4e133" d="M490 659h2l-1 4-2-3z"/><path fill="#d3c86a" d="m541 290 2 1-1 3h-2z"/></svg>